<svg width="20" height="20" viewBox="0 0 20 20" fill="none" xmlns="http://www.w3.org/2000/svg">
<path d="M9.659 19.3487C9.14651 19.3481 8.65479 19.1461 8.28992 18.7862L1.48696 11.9726C1.31238 11.7991 1.20358 11.5702 1.17918 11.3252L0.245229 1.40204C0.230932 1.24659 0.251103 1.0899 0.304303 0.943143C0.357502 0.796385 0.442422 0.663169 0.553007 0.552992C0.663185 0.442406 0.7964 0.357487 0.943159 0.304287C1.08992 0.251087 1.2466 0.230917 1.40205 0.245214L11.3253 1.17916C11.5702 1.20357 11.7991 1.31237 11.9726 1.48694L18.7862 8.2899C19.1472 8.65198 19.3499 9.1424 19.3499 9.65368C19.3499 10.165 19.1472 10.6554 18.7862 11.0175L11.0175 18.7862C10.6565 19.1455 10.1683 19.3476 9.659 19.3487ZM3.29117 10.7415L9.659 17.1093L17.1412 9.62715L10.7734 3.25932L2.48458 2.48457L3.29117 10.7415Z" fill="#231F20"/>
</svg>
